<svg xmlns="http://www.w3.org/2000/svg" width="32" height="32" fill="none"><path fill="#C5E1A5" d="M0 0h32v32H0z"/><path fill="#000" d="M13.614 24.42c-1.615 0-2.997-.342-4.146-1.025-1.15-.683-2.034-1.654-2.655-2.911-.606-1.258-.909-2.757-.909-4.496 0-1.739.303-3.23.909-4.472.62-1.258 1.506-2.228 2.655-2.911 1.15-.684 2.531-1.025 4.146-1.025 1.134 0 2.182.178 3.145.536.962.357 1.77.877 2.422 1.56l-.745 1.56c-.715-.667-1.46-1.148-2.236-1.443-.761-.31-1.608-.466-2.54-.466-1.847 0-3.26.582-4.239 1.747-.978 1.164-1.467 2.803-1.467 4.914 0 2.112.49 3.758 1.467 4.938.979 1.165 2.392 1.747 4.24 1.747.931 0 1.778-.147 2.539-.442.776-.31 1.521-.8 2.236-1.468l.745 1.56c-.652.669-1.46 1.189-2.422 1.561-.963.358-2.011.536-3.145.536ZM24.651 24.315c-1.149 0-2.018-.341-2.608-1.024-.575-.684-.862-1.662-.862-2.935V7.685h1.886v12.53c0 .544.07 1.003.21 1.375.155.373.38.652.675.839.295.186.66.28 1.095.28.186 0 .365-.009.536-.024.186-.031.357-.07.512-.117l-.046 1.584c-.249.047-.49.086-.722.117a4.767 4.767 0 0 1-.676.046Z"/></svg>