<svg xmlns="http://www.w3.org/2000/svg" width="24" height="24" fill="none"><path fill="#000" stroke="#000" d="M11.995 4.69c.071 0 .133.017.195.06l.061.053 6.948 6.948a.414.414 0 0 1 .091.125v.001a.314.314 0 0 1 .024.124.31.31 0 0 1-.024.122v.001a.41.41 0 0 1-.09.125l-6.955 6.948c-.091.09-.17.117-.253.117-.08 0-.153-.025-.236-.11l-.005-.006-.052-.06a.3.3 0 0 1-.056-.183c0-.065.014-.122.056-.182l.052-.06 6.361-6.361H4.702c-.122 0-.194-.036-.255-.096-.062-.061-.096-.134-.096-.256s.034-.195.095-.256h.001c.06-.06.133-.095.255-.096h13.41l-6.355-6.355a.347.347 0 0 1-.106-.185l-.005-.067c-.001-.09.025-.164.105-.244l.001-.001a.313.313 0 0 1 .243-.107Z"/></svg>