<svg xmlns="http://www.w3.org/2000/svg" width="24" height="24" fill="none"><path fill="#000" stroke="#000" d="M12.008 4.687c.085 0 .159.026.241.108a.337.337 0 0 1 .108.249c0 .087-.026.16-.108.243l-6.361 6.361h13.41c.121 0 .197.036.26.1a.322.322 0 0 1 .097.252c0 .12-.034.192-.096.253a.339.339 0 0 1-.261.099H5.888l6.355 6.355c.082.081.11.158.111.25v.001a.301.301 0 0 1-.055.185l-.052.061a.31.31 0 0 1-.242.107.344.344 0 0 1-.256-.114L4.801 12.25a.416.416 0 0 1-.091-.125v-.001a.316.316 0 0 1-.023-.124c0-.048.008-.087.023-.122v-.001a.41.41 0 0 1 .09-.125l6.951-6.95a.348.348 0 0 1 .257-.114Z"/></svg>