<svg xmlns="http://www.w3.org/2000/svg" width="24" height="24" fill="none"><path fill="#000" stroke="#000" d="M17.6 5.925c.164 0 .266.048.346.129a.45.45 0 0 1 .13.346.452.452 0 0 1-.13.346L12.692 12l.354.354 4.9 4.9c.08.08.13.182.13.346a.451.451 0 0 1-.13.346.451.451 0 0 1-.346.13.452.452 0 0 1-.347-.13l-4.9-4.9-.353-.353-5.254 5.254a.452.452 0 0 1-.347.128.45.45 0 0 1-.345-.128.451.451 0 0 1-.13-.347c0-.164.05-.267.13-.347L11.307 12l-.354-.353-4.9-4.9a.451.451 0 0 1-.128-.347.45.45 0 0 1 .129-.346.45.45 0 0 1 .345-.129c.165 0 .267.048.347.129l4.9 4.9.354.353 5.253-5.253a.452.452 0 0 1 .347-.129Z"/></svg>