<svg xmlns="http://www.w3.org/2000/svg" width="24" height="24" fill="none"><path fill="#000" d="M6.477 21.15c-.474 0-.877-.166-1.21-.498a1.64 1.64 0 0 1-.5-1.206V5.298h-.274a.821.821 0 0 1-.606-.247.83.83 0 0 1-.246-.61c0-.24.082-.442.246-.604a.829.829 0 0 1 .606-.243h4.105a.83.83 0 0 1 .246-.612.824.824 0 0 1 .606-.245h5.094c.24 0 .442.083.606.249a.834.834 0 0 1 .246.608h4.11c.241 0 .443.083.607.247a.83.83 0 0 1 .246.61.816.816 0 0 1-.246.605.83.83 0 0 1-.606.242h-.275v14.148c0 .473-.166.875-.5 1.206a1.651 1.651 0 0 1-1.21.497H6.478ZM17.523 5.297H6.477v14.148h11.046V5.298Zm-7.62 12.046a.766.766 0 0 0 .568-.231.778.778 0 0 0 .228-.567v-8.38a.767.767 0 0 0-.233-.566.777.777 0 0 0-.57-.231c-.23 0-.42.077-.571.232a.777.777 0 0 0-.228.566v8.38a.77.77 0 0 0 .232.566.78.78 0 0 0 .573.231Zm4.207 0a.77.77 0 0 0 .568-.231.772.772 0 0 0 .23-.567v-8.38a.765.765 0 0 0-.234-.566.785.785 0 0 0-.573-.231.772.772 0 0 0-.57.232.771.771 0 0 0-.23.566v8.38c0 .223.079.411.236.566a.79.79 0 0 0 .573.231Z"/></svg>