<svg xmlns="http://www.w3.org/2000/svg" width="24" height="24" fill="none"><path fill="#000" d="M7.17 22.04c-.497 0-.92-.176-1.27-.53a1.747 1.747 0 0 1-.525-1.275c0-.496.177-.92.53-1.27.354-.35.779-.524 1.275-.524.497 0 .92.177 1.27.53.35.354.525.779.525 1.275 0 .497-.177.92-.53 1.27-.354.35-.779.525-1.275.525Zm10 0c-.497 0-.92-.176-1.27-.53a1.747 1.747 0 0 1-.525-1.275c0-.496.177-.92.53-1.27.354-.35.779-.524 1.275-.524.497 0 .92.177 1.27.53.35.354.525.779.525 1.275 0 .497-.177.92-.53 1.27-.354.35-.779.525-1.275.525ZM5.989 5.54l2.648 5.497h7.182l3.006-5.496H5.989Zm-.822-1.63h14.554c.435 0 .766.196.994.59.227.394.228.79.004 1.188l-3.273 5.901a2.38 2.38 0 0 1-.738.787c-.3.2-.633.299-.998.299H8.178L6.82 15.209h11.405c.231 0 .425.079.581.236a.794.794 0 0 1 .235.583.794.794 0 0 1-.816.813h-11.3c-.732 0-1.258-.245-1.578-.736-.32-.49-.314-1.038.018-1.64l1.582-2.915-3.764-7.984H2.025a.788.788 0 0 1-.581-.236.794.794 0 0 1-.235-.583c0-.232.079-.426.235-.58a.793.793 0 0 1 .581-.233h1.676c.17 0 .324.042.463.126.138.083.239.2.302.353l.701 1.496Z"/></svg>