<svg xmlns="http://www.w3.org/2000/svg" width="24" height="24" fill="none"><path fill="#000" d="m12 17.442-4.662 2.812a.849.849 0 0 1-.944-.031.86.86 0 0 1-.296-.37.865.865 0 0 1-.04-.512l1.23-5.312-4.111-3.587a.778.778 0 0 1-.274-.435 1.012 1.012 0 0 1 .013-.473.693.693 0 0 1 .258-.388.897.897 0 0 1 .488-.184l5.436-.475 2.106-5.018a.784.784 0 0 1 .34-.388.924.924 0 0 1 .456-.127c.153 0 .306.042.457.127a.783.783 0 0 1 .339.388l2.106 5.018 5.443.475a.89.89 0 0 1 .481.184c.135.105.221.235.258.388.042.154.046.311.013.473a.778.778 0 0 1-.274.435l-4.111 3.587 1.23 5.312a.866.866 0 0 1-.04.512.862.862 0 0 1-.75.529.83.83 0 0 1-.49-.128L12 17.442Z"/></svg>